<mxfile host="app.diagrams.net" modified="2021-11-09T15:51:33.113Z" agent="5.0 (X11; Linux x86_64) AppleWebKit/537.36 (KHTML, like Gecko) Chrome/95.0.4638.69 Safari/537.36" etag="zkDKaDwoiQ70Q17oSZP3" version="15.7.0" type="github">
  <diagram id="Crqe3KpH6ylOKP2l_Z3y" name="Page-1">
    <mxGraphModel dx="1871" dy="567" grid="1" gridSize="10" guides="1" tooltips="1" connect="1" arrows="1" fold="1" page="1" pageScale="1" pageWidth="850" pageHeight="1100" math="0" shadow="0">
      <root>
        <mxCell id="0" />
        <mxCell id="1" parent="0" />
        <mxCell id="Kwi7QUfBRycLQMDjasRY-3" style="edgeStyle=orthogonalEdgeStyle;rounded=0;orthogonalLoop=1;jettySize=auto;html=1;" edge="1" parent="1" source="Kwi7QUfBRycLQMDjasRY-1" target="Kwi7QUfBRycLQMDjasRY-2">
          <mxGeometry relative="1" as="geometry" />
        </mxCell>
        <mxCell id="Kwi7QUfBRycLQMDjasRY-5" style="edgeStyle=orthogonalEdgeStyle;rounded=0;orthogonalLoop=1;jettySize=auto;html=1;entryX=0.5;entryY=0;entryDx=0;entryDy=0;" edge="1" parent="1" source="Kwi7QUfBRycLQMDjasRY-1" target="Kwi7QUfBRycLQMDjasRY-4">
          <mxGeometry relative="1" as="geometry">
            <mxPoint x="490" y="70" as="targetPoint" />
          </mxGeometry>
        </mxCell>
        <mxCell id="Kwi7QUfBRycLQMDjasRY-7" style="edgeStyle=orthogonalEdgeStyle;rounded=0;orthogonalLoop=1;jettySize=auto;html=1;entryX=0.5;entryY=0;entryDx=0;entryDy=0;" edge="1" parent="1" source="Kwi7QUfBRycLQMDjasRY-1" target="Kwi7QUfBRycLQMDjasRY-6">
          <mxGeometry relative="1" as="geometry" />
        </mxCell>
        <mxCell id="Kwi7QUfBRycLQMDjasRY-9" style="edgeStyle=orthogonalEdgeStyle;rounded=0;orthogonalLoop=1;jettySize=auto;html=1;" edge="1" parent="1" source="Kwi7QUfBRycLQMDjasRY-1" target="Kwi7QUfBRycLQMDjasRY-8">
          <mxGeometry relative="1" as="geometry" />
        </mxCell>
        <mxCell id="Kwi7QUfBRycLQMDjasRY-1" value="Homepage" style="rounded=0;whiteSpace=wrap;html=1;" vertex="1" parent="1">
          <mxGeometry x="420" y="20" width="120" height="60" as="geometry" />
        </mxCell>
        <mxCell id="Kwi7QUfBRycLQMDjasRY-11" style="edgeStyle=orthogonalEdgeStyle;rounded=0;orthogonalLoop=1;jettySize=auto;html=1;entryX=0.5;entryY=0;entryDx=0;entryDy=0;" edge="1" parent="1" source="Kwi7QUfBRycLQMDjasRY-2" target="Kwi7QUfBRycLQMDjasRY-10">
          <mxGeometry relative="1" as="geometry" />
        </mxCell>
        <mxCell id="Kwi7QUfBRycLQMDjasRY-2" value="Edu News" style="rounded=0;whiteSpace=wrap;html=1;" vertex="1" parent="1">
          <mxGeometry x="120" y="160" width="120" height="60" as="geometry" />
        </mxCell>
        <mxCell id="Kwi7QUfBRycLQMDjasRY-13" style="edgeStyle=orthogonalEdgeStyle;rounded=0;orthogonalLoop=1;jettySize=auto;html=1;entryX=0.5;entryY=0;entryDx=0;entryDy=0;" edge="1" parent="1" source="Kwi7QUfBRycLQMDjasRY-4" target="Kwi7QUfBRycLQMDjasRY-12">
          <mxGeometry relative="1" as="geometry" />
        </mxCell>
        <mxCell id="Kwi7QUfBRycLQMDjasRY-4" value="Guide News" style="rounded=0;whiteSpace=wrap;html=1;" vertex="1" parent="1">
          <mxGeometry x="320" y="160" width="120" height="60" as="geometry" />
        </mxCell>
        <mxCell id="Kwi7QUfBRycLQMDjasRY-15" style="edgeStyle=orthogonalEdgeStyle;rounded=0;orthogonalLoop=1;jettySize=auto;html=1;entryX=0.5;entryY=0;entryDx=0;entryDy=0;" edge="1" parent="1" source="Kwi7QUfBRycLQMDjasRY-6" target="Kwi7QUfBRycLQMDjasRY-14">
          <mxGeometry relative="1" as="geometry" />
        </mxCell>
        <mxCell id="Kwi7QUfBRycLQMDjasRY-18" style="edgeStyle=orthogonalEdgeStyle;rounded=0;orthogonalLoop=1;jettySize=auto;html=1;entryX=0;entryY=0.5;entryDx=0;entryDy=0;" edge="1" parent="1" source="Kwi7QUfBRycLQMDjasRY-6" target="Kwi7QUfBRycLQMDjasRY-16">
          <mxGeometry relative="1" as="geometry" />
        </mxCell>
        <mxCell id="Kwi7QUfBRycLQMDjasRY-6" value="Projects" style="rounded=0;whiteSpace=wrap;html=1;" vertex="1" parent="1">
          <mxGeometry x="520" y="160" width="120" height="60" as="geometry" />
        </mxCell>
        <mxCell id="Kwi7QUfBRycLQMDjasRY-8" value="About" style="rounded=0;whiteSpace=wrap;html=1;" vertex="1" parent="1">
          <mxGeometry x="740" y="20" width="120" height="60" as="geometry" />
        </mxCell>
        <mxCell id="Kwi7QUfBRycLQMDjasRY-10" value="Edu News Details" style="rounded=0;whiteSpace=wrap;html=1;" vertex="1" parent="1">
          <mxGeometry x="120" y="290" width="120" height="60" as="geometry" />
        </mxCell>
        <mxCell id="Kwi7QUfBRycLQMDjasRY-12" value="Guide News Details" style="rounded=0;whiteSpace=wrap;html=1;" vertex="1" parent="1">
          <mxGeometry x="320" y="290" width="120" height="60" as="geometry" />
        </mxCell>
        <mxCell id="Kwi7QUfBRycLQMDjasRY-14" value="Project Details" style="rounded=0;whiteSpace=wrap;html=1;" vertex="1" parent="1">
          <mxGeometry x="520" y="290" width="120" height="60" as="geometry" />
        </mxCell>
        <mxCell id="Kwi7QUfBRycLQMDjasRY-19" style="edgeStyle=orthogonalEdgeStyle;rounded=0;orthogonalLoop=1;jettySize=auto;html=1;entryX=1;entryY=0.5;entryDx=0;entryDy=0;" edge="1" parent="1" source="Kwi7QUfBRycLQMDjasRY-16" target="Kwi7QUfBRycLQMDjasRY-14">
          <mxGeometry relative="1" as="geometry">
            <Array as="points">
              <mxPoint x="790" y="320" />
            </Array>
          </mxGeometry>
        </mxCell>
        <mxCell id="Kwi7QUfBRycLQMDjasRY-16" value="Overall (Manage all projects&#39; events in calendar)" style="rounded=0;whiteSpace=wrap;html=1;" vertex="1" parent="1">
          <mxGeometry x="730" y="160" width="120" height="60" as="geometry" />
        </mxCell>
        <mxCell id="Kwi7QUfBRycLQMDjasRY-22" style="edgeStyle=orthogonalEdgeStyle;rounded=0;orthogonalLoop=1;jettySize=auto;html=1;entryX=0.5;entryY=0;entryDx=0;entryDy=0;" edge="1" parent="1" source="Kwi7QUfBRycLQMDjasRY-20" target="Kwi7QUfBRycLQMDjasRY-21">
          <mxGeometry relative="1" as="geometry" />
        </mxCell>
        <mxCell id="Kwi7QUfBRycLQMDjasRY-24" style="edgeStyle=orthogonalEdgeStyle;rounded=0;orthogonalLoop=1;jettySize=auto;html=1;entryX=0;entryY=0.5;entryDx=0;entryDy=0;" edge="1" parent="1" source="Kwi7QUfBRycLQMDjasRY-20" target="Kwi7QUfBRycLQMDjasRY-23">
          <mxGeometry relative="1" as="geometry" />
        </mxCell>
        <mxCell id="Kwi7QUfBRycLQMDjasRY-32" style="edgeStyle=orthogonalEdgeStyle;rounded=0;orthogonalLoop=1;jettySize=auto;html=1;entryX=0.5;entryY=0;entryDx=0;entryDy=0;" edge="1" parent="1" source="Kwi7QUfBRycLQMDjasRY-20" target="Kwi7QUfBRycLQMDjasRY-26">
          <mxGeometry relative="1" as="geometry" />
        </mxCell>
        <mxCell id="Kwi7QUfBRycLQMDjasRY-20" value="Admin Dashboard" style="rounded=0;whiteSpace=wrap;html=1;" vertex="1" parent="1">
          <mxGeometry x="440" y="440" width="120" height="60" as="geometry" />
        </mxCell>
        <mxCell id="Kwi7QUfBRycLQMDjasRY-30" style="edgeStyle=orthogonalEdgeStyle;rounded=0;orthogonalLoop=1;jettySize=auto;html=1;entryX=1;entryY=0.5;entryDx=0;entryDy=0;" edge="1" parent="1" source="Kwi7QUfBRycLQMDjasRY-21" target="Kwi7QUfBRycLQMDjasRY-28">
          <mxGeometry relative="1" as="geometry" />
        </mxCell>
        <mxCell id="Kwi7QUfBRycLQMDjasRY-31" style="edgeStyle=orthogonalEdgeStyle;rounded=0;orthogonalLoop=1;jettySize=auto;html=1;" edge="1" parent="1" source="Kwi7QUfBRycLQMDjasRY-21" target="Kwi7QUfBRycLQMDjasRY-29">
          <mxGeometry relative="1" as="geometry">
            <Array as="points">
              <mxPoint x="110" y="600" />
              <mxPoint x="110" y="530" />
            </Array>
          </mxGeometry>
        </mxCell>
        <mxCell id="Kwi7QUfBRycLQMDjasRY-21" value="Projects" style="rounded=0;whiteSpace=wrap;html=1;" vertex="1" parent="1">
          <mxGeometry x="150" y="570" width="120" height="60" as="geometry" />
        </mxCell>
        <mxCell id="Kwi7QUfBRycLQMDjasRY-37" style="edgeStyle=orthogonalEdgeStyle;rounded=0;orthogonalLoop=1;jettySize=auto;html=1;entryX=0.5;entryY=0;entryDx=0;entryDy=0;exitX=0.75;exitY=1;exitDx=0;exitDy=0;" edge="1" parent="1" source="Kwi7QUfBRycLQMDjasRY-20" target="Kwi7QUfBRycLQMDjasRY-27">
          <mxGeometry relative="1" as="geometry" />
        </mxCell>
        <mxCell id="Kwi7QUfBRycLQMDjasRY-40" style="edgeStyle=orthogonalEdgeStyle;rounded=0;orthogonalLoop=1;jettySize=auto;html=1;entryX=0;entryY=0.5;entryDx=0;entryDy=0;exitX=0.5;exitY=1;exitDx=0;exitDy=0;" edge="1" parent="1" source="Kwi7QUfBRycLQMDjasRY-23" target="Kwi7QUfBRycLQMDjasRY-38">
          <mxGeometry relative="1" as="geometry" />
        </mxCell>
        <mxCell id="Kwi7QUfBRycLQMDjasRY-41" style="rounded=0;orthogonalLoop=1;jettySize=auto;html=1;entryX=0;entryY=0.5;entryDx=0;entryDy=0;" edge="1" parent="1" source="Kwi7QUfBRycLQMDjasRY-23" target="Kwi7QUfBRycLQMDjasRY-39">
          <mxGeometry relative="1" as="geometry" />
        </mxCell>
        <mxCell id="Kwi7QUfBRycLQMDjasRY-23" value="Events" style="rounded=0;whiteSpace=wrap;html=1;" vertex="1" parent="1">
          <mxGeometry x="820" y="440" width="120" height="60" as="geometry" />
        </mxCell>
        <mxCell id="Kwi7QUfBRycLQMDjasRY-35" style="edgeStyle=orthogonalEdgeStyle;rounded=0;orthogonalLoop=1;jettySize=auto;html=1;entryX=0.5;entryY=0;entryDx=0;entryDy=0;" edge="1" parent="1" source="Kwi7QUfBRycLQMDjasRY-26" target="Kwi7QUfBRycLQMDjasRY-33">
          <mxGeometry relative="1" as="geometry">
            <Array as="points">
              <mxPoint x="200" y="680" />
            </Array>
          </mxGeometry>
        </mxCell>
        <mxCell id="Kwi7QUfBRycLQMDjasRY-36" style="rounded=0;orthogonalLoop=1;jettySize=auto;html=1;entryX=0.418;entryY=-0.017;entryDx=0;entryDy=0;entryPerimeter=0;exitX=0.5;exitY=1;exitDx=0;exitDy=0;" edge="1" parent="1" source="Kwi7QUfBRycLQMDjasRY-26" target="Kwi7QUfBRycLQMDjasRY-34">
          <mxGeometry relative="1" as="geometry">
            <mxPoint x="340" y="730" as="sourcePoint" />
          </mxGeometry>
        </mxCell>
        <mxCell id="Kwi7QUfBRycLQMDjasRY-26" value="News" style="rounded=0;whiteSpace=wrap;html=1;" vertex="1" parent="1">
          <mxGeometry x="320" y="650" width="120" height="60" as="geometry" />
        </mxCell>
        <mxCell id="Kwi7QUfBRycLQMDjasRY-44" style="edgeStyle=orthogonalEdgeStyle;rounded=0;orthogonalLoop=1;jettySize=auto;html=1;entryX=0.5;entryY=0;entryDx=0;entryDy=0;" edge="1" parent="1" source="Kwi7QUfBRycLQMDjasRY-27" target="Kwi7QUfBRycLQMDjasRY-43">
          <mxGeometry relative="1" as="geometry" />
        </mxCell>
        <mxCell id="Kwi7QUfBRycLQMDjasRY-45" style="edgeStyle=orthogonalEdgeStyle;rounded=0;orthogonalLoop=1;jettySize=auto;html=1;entryX=0.417;entryY=0.033;entryDx=0;entryDy=0;entryPerimeter=0;" edge="1" parent="1" source="Kwi7QUfBRycLQMDjasRY-27" target="Kwi7QUfBRycLQMDjasRY-42">
          <mxGeometry relative="1" as="geometry" />
        </mxCell>
        <mxCell id="Kwi7QUfBRycLQMDjasRY-27" value="Users" style="rounded=0;whiteSpace=wrap;html=1;" vertex="1" parent="1">
          <mxGeometry x="610" y="650" width="120" height="60" as="geometry" />
        </mxCell>
        <mxCell id="Kwi7QUfBRycLQMDjasRY-28" value="Add Project" style="rounded=0;whiteSpace=wrap;html=1;" vertex="1" parent="1">
          <mxGeometry x="-50" y="630" width="120" height="60" as="geometry" />
        </mxCell>
        <mxCell id="Kwi7QUfBRycLQMDjasRY-29" value="Edit Project" style="rounded=0;whiteSpace=wrap;html=1;" vertex="1" parent="1">
          <mxGeometry x="-50" y="490" width="120" height="60" as="geometry" />
        </mxCell>
        <mxCell id="Kwi7QUfBRycLQMDjasRY-33" value="Add News" style="rounded=0;whiteSpace=wrap;html=1;" vertex="1" parent="1">
          <mxGeometry x="140" y="740" width="120" height="60" as="geometry" />
        </mxCell>
        <mxCell id="Kwi7QUfBRycLQMDjasRY-34" value="Edit News" style="rounded=0;whiteSpace=wrap;html=1;" vertex="1" parent="1">
          <mxGeometry x="330" y="780" width="120" height="60" as="geometry" />
        </mxCell>
        <mxCell id="Kwi7QUfBRycLQMDjasRY-38" value="Add Event" style="rounded=0;whiteSpace=wrap;html=1;dashed=1;" vertex="1" parent="1">
          <mxGeometry x="940" y="550" width="120" height="60" as="geometry" />
        </mxCell>
        <mxCell id="Kwi7QUfBRycLQMDjasRY-39" value="Edit Event" style="rounded=0;whiteSpace=wrap;html=1;dashed=1;" vertex="1" parent="1">
          <mxGeometry x="1020" y="440" width="120" height="60" as="geometry" />
        </mxCell>
        <mxCell id="Kwi7QUfBRycLQMDjasRY-42" value="Add User" style="rounded=0;whiteSpace=wrap;html=1;dashed=1;" vertex="1" parent="1">
          <mxGeometry x="620" y="780" width="120" height="60" as="geometry" />
        </mxCell>
        <mxCell id="Kwi7QUfBRycLQMDjasRY-43" value="Edit User" style="rounded=0;whiteSpace=wrap;html=1;dashed=1;" vertex="1" parent="1">
          <mxGeometry x="770" y="710" width="120" height="60" as="geometry" />
        </mxCell>
        <mxCell id="Kwi7QUfBRycLQMDjasRY-47" value="" style="endArrow=none;dashed=1;html=1;dashPattern=1 3;strokeWidth=2;rounded=0;" edge="1" parent="1">
          <mxGeometry width="50" height="50" relative="1" as="geometry">
            <mxPoint x="980" y="210" as="sourcePoint" />
            <mxPoint x="1050" y="210" as="targetPoint" />
          </mxGeometry>
        </mxCell>
        <mxCell id="Kwi7QUfBRycLQMDjasRY-48" value="" style="endArrow=none;html=1;rounded=0;" edge="1" parent="1">
          <mxGeometry width="50" height="50" relative="1" as="geometry">
            <mxPoint x="980" y="254.70999999999998" as="sourcePoint" />
            <mxPoint x="1050" y="255.20999999999998" as="targetPoint" />
          </mxGeometry>
        </mxCell>
        <mxCell id="Kwi7QUfBRycLQMDjasRY-49" value="&lt;font style=&quot;font-size: 18px&quot;&gt;Popup&lt;/font&gt;" style="text;html=1;strokeColor=none;fillColor=none;align=center;verticalAlign=middle;whiteSpace=wrap;rounded=0;dashed=1;" vertex="1" parent="1">
          <mxGeometry x="1060" y="190" width="60" height="30" as="geometry" />
        </mxCell>
        <mxCell id="Kwi7QUfBRycLQMDjasRY-50" value="&lt;font style=&quot;font-size: 18px&quot;&gt;Screen&lt;/font&gt;" style="text;html=1;strokeColor=none;fillColor=none;align=center;verticalAlign=middle;whiteSpace=wrap;rounded=0;dashed=1;" vertex="1" parent="1">
          <mxGeometry x="1060" y="240" width="60" height="30" as="geometry" />
        </mxCell>
      </root>
    </mxGraphModel>
  </diagram>
</mxfile>
